<svg width="480" height="480" xmlns="http://www.w3.org/2000/svg">

 <g>
  <title>Layer 1</title>
  <path id="svg_1" d="m240,0c-132.54687,0 -240,107.45313 -240,240s107.45313,240 240,240c7.23047,0 14.43359,-0.32422 21.60156,-0.96875c6.66407,-0.59766 13.26953,-1.51172 19.82422,-2.65625l2.51953,-0.44531c121.86328,-22.74219 206.35938,-134.55078 194.96094,-257.9961c-11.39844,-123.44531 -114.9375,-217.89453 -238.90625,-217.93359zm-19.28125,463.15234l-0.56641,0c-6.22265,-0.55078 -12.39843,-1.38281 -18.51953,-2.44921c-0.35156,-0.0625 -0.70312,-0.10157 -1.04687,-0.16797c-5.98438,-1.07032 -11.90625,-2.39844 -17.76953,-3.94922l-1.41797,-0.36328c-5.71875,-1.55078 -11.375,-3.35157 -16.94922,-5.35157c-0.57813,-0.20703 -1.16016,-0.39062 -1.73828,-0.60547c-5.46485,-2.00781 -10.83203,-4.25781 -16.11719,-6.6914c-0.65625,-0.29297 -1.3125,-0.57422 -1.96875,-0.88672c-5.18359,-2.39844 -10.26562,-5.10156 -15.25,-7.94531c-0.70312,-0.39844 -1.41406,-0.79688 -2.11719,-1.19141c-4.90625,-2.86328 -9.69922,-5.93359 -14.40234,-9.17578c-0.71094,-0.49609 -1.42969,-0.97656 -2.13672,-1.47266c-4.62109,-3.27734 -9.125,-6.75781 -13.51172,-10.39843l-1.20703,-1.05469l0,-67.44922c0.05859,-48.57813 39.42188,-87.94141 88,-88l112,0c48.57813,0.05859 87.94141,39.42187 88,88l0,67.45703l-1.0625,0.88672c-4.47266,3.73437 -9.0625,7.26562 -13.77734,10.60156c-0.625,0.4375 -1.25782,0.85547 -1.87891,1.28516c-4.75781,3.30469 -9.63281,6.41406 -14.625,9.33594c-0.625,0.36328 -1.26562,0.70703 -1.88672,1.0664c-5.05859,2.87891 -10.20312,5.59766 -15.44922,8.04688c-0.60156,0.28125 -1.20703,0.54297 -1.8164,0.80078c-5.32813,2.45703 -10.74219,4.71875 -16.2461,6.74219c-0.54687,0.20312 -1.09765,0.3789 -1.60156,0.57031c-5.60156,2.00781 -11.28125,3.82422 -17.03125,5.38281l-1.37891,0.34375c-5.87109,1.55078 -11.79687,2.88672 -17.78906,3.96094c-0.34375,0.0625 -0.6875,0.10547 -1.03125,0.16015c-6.1289,1.07032 -12.3125,1.90235 -18.53906,2.45704l-0.56641,0c-6.39843,0.55078 -12.80078,0.84765 -19.28125,0.84765c-6.48047,0 -12.93359,-0.24219 -19.32031,-0.79297zm179.28125,-66.52734l0,-52.625c-0.06641,-57.41016 -46.58984,-103.93359 -104,-104l-112,0c-57.41016,0.06641 -103.93359,46.58984 -104,104l0,52.61719c-86.16406,-87.94141 -85.20313,-228.9375 2.14844,-315.69922c87.35156,-86.75781 228.35156,-86.75781 315.70312,0c87.35157,86.76172 88.3125,227.75781 2.14844,315.69922l0,0.00781zm0,0"/>
  <path id="svg_2" d="m240,64c-44.18359,0 -80,35.81641 -80,80s35.81641,80 80,80s80,-35.81641 80,-80c-0.04687,-44.16406 -35.83594,-79.95312 -80,-80zm0,144c-35.34766,0 -64,-28.65234 -64,-64s28.65234,-64 64,-64s64,28.65234 64,64c-0.03906,35.32813 -28.67187,63.96094 -64,64zm0,0"/>
  <ellipse stroke="#000" ry="70.50001" rx="70.5" id="svg_4" cy="143" cx="242" opacity="undefined" fill="#000000"/>
  <ellipse stroke="null" ry="113.5" rx="158.5" id="svg_5" cy="354" cx="240.99999" opacity="undefined" fill-opacity="null" stroke-opacity="null" stroke-dasharray="null" stroke-width="null" fill="null"/>
  <ellipse stroke="null" ry="52.5" rx="44.5" id="svg_8" cy="392" cx="134" opacity="undefined" fill-opacity="null" stroke-opacity="null" stroke-dasharray="null" stroke-width="null" fill="null"/>
  <ellipse stroke="null" ry="52.5" rx="44.5" id="svg_10" cy="392" cx="347" opacity="undefined" fill-opacity="null" stroke-opacity="null" stroke-dasharray="null" stroke-width="null" fill="null"/>
 </g>
</svg>